<svg xmlns="http://www.w3.org/2000/svg" width="27.248314" height="27.119141" viewBox="0 0 27.248313 27.11914"><path d="M13.628907 0c-1.18 0-2.359766.44960937-3.259766 1.3496094-1.7900004 1.8-1.7900004 4.7197656 0 6.5097656 1.8 1.79 4.719766 1.79 6.509766 0h.01172c1.79-1.8 1.79-4.7197656 0-6.5097656C15.990625.44960937 14.808907 0 13.628907 0Zm-.0039.75195312c.9875.00125 1.97461.37890628 2.72461 1.12890628 1.5 1.5 1.5 3.9492187 0 5.4492187-.75.75-1.740469 1.1308594-2.730469 1.1308594-.99 0-1.978516-.3808594-2.728516-1.1308594-1.5-1.5-1.5-3.9492187 0-5.4492187h.0098c.75-.755 1.737109-1.13015628 2.724609-1.12890628zM7.640625 14.869141c-1.18 0-2.3617188.451562-3.2617188 1.351562L1.390625 19.210938 1.3496094 19.25C.47960938 20.12 0 21.279766 0 22.509766s.47960938 2.389765 1.3496094 3.259765h.00977c.87.87 2.0297656 1.34961 3.2597656 1.34961s2.3910156-.478672 3.2910156-1.388672l5.7187504-5.720703 5.761718 5.759765c.87.87 2.029766 1.34961 3.259766 1.34961s2.389766-.47961 3.259766-1.34961c1.79-1.8 1.78875-4.719062-.03125-6.539062l-3-3c-.22-.22-.45875-.419844-.71875-.589844-.05-.04-.109922-.05984-.169922-.08984-.2-.12-.41086-.240078-.63086-.330078-.04-.02-.08891-.02102-.128906-.04101-.24-.09-.480469-.168985-.730469-.208985-.04 0-.06938.000235-.109375-.0098-.25-.04-.511484-.08008-.771484-.08008-.57 0-1.118672.108594-1.638672.308594-.03.01-.07156.02125-.101562.03125-.23.09-.438438.209844-.648438.339844-.05.03-.100391.05008-.150391.08008-.25.17-.500703.360078-.720703.580078l-2.730468 2.728516-2.728516-2.728516c-.9-.9-2.0797656-1.351562-3.2597656-1.351562zm.013672.748047c.98875 0 1.9746094.377812 2.72461 1.132812l2.730468 2.730469-5.7597654 5.759765c-.7300001.73-1.7004688 1.128907-2.7304688 1.128907-1.03 0-1.9985156-.398907-2.7285156-1.128907-.73-.73-1.13085937-1.700468-1.13085937-2.730468s.40039057-2 1.15039057-2.75L4.9199218 16.75c.755-.755 1.745625-1.132812 2.7343752-1.132812zm11.960938.0078c.98875 0 1.979375.375 2.734375 1.125l2.990234 2.990234.03906.03906c1.5 1.5 1.5 3.951172 0 5.451172-.73.73-1.698516 1.128906-2.728516 1.128906s-1.999766-.399922-2.759766-1.169922l-5.7207-5.718735L16.890625 16.75c.75-.75 1.73586-1.125 2.72461-1.125zM.25000001 26.660156c-.09.02-.15023438.01953-.24023438.01953h.25976562z" style="fill:#fff;stroke-width:0"/></svg>