<svg xmlns="http://www.w3.org/2000/svg" data-name="레이어 2" viewBox="0 0 226.77 27.12"><path d="M22.6 23.5h-.09.08ZM1.35 25.77c.87.87 2.03 1.35 3.26 1.35S7 26.64 7.9 25.73l5.72-5.72 5.76 5.76c.87.87 2.03 1.35 3.26 1.35s2.39-.48 3.26-1.35c1.79-1.8 1.79-4.72-.03-6.54l-3-3c-.22-.22-.46-.42-.72-.59-.05-.04-.11-.06-.17-.09-.2-.12-.41-.24-.63-.33-.04-.02-.09-.02-.13-.04-.24-.09-.48-.17-.73-.21-.04 0-.07 0-.11-.01-.25-.04-.51-.08-.77-.08-.57 0-1.12.11-1.64.31-.03.01-.07.02-.1.03-.23.09-.44.21-.65.34-.05.03-.1.05-.15.08-.25.17-.5.36-.72.58l-2.73 2.73-2.73-2.73c-.9-.9-2.08-1.35-3.26-1.35s-2.36.45-3.26 1.35l-2.99 2.99-.04.04c-.87.87-1.35 2.03-1.35 3.26s.48 2.39 1.35 3.26Zm15.53-9.01c1.5-1.5 3.95-1.5 5.46 0l2.99 2.99.04.04c1.5 1.5 1.5 3.95 0 5.45-.73.73-1.7 1.13-2.73 1.13s-2-.4-2.76-1.17l-5.72-5.72 2.73-2.73ZM1.9 19.77l3.01-3.01c1.51-1.51 3.96-1.51 5.46 0l2.73 2.73-5.76 5.76c-.73.73-1.7 1.13-2.73 1.13s-2-.4-2.73-1.13-1.13-1.7-1.13-2.73.4-2 1.15-2.75M16.88 7.86c1.79-1.8 1.79-4.72 0-6.51C15.98.45 14.8 0 13.62 0s-2.36.45-3.26 1.35c-1.79 1.8-1.79 4.72 0 6.51 1.8 1.79 4.72 1.79 6.51 0Zm-5.99-5.98c1.5-1.51 3.95-1.5 5.46 0 1.5 1.5 1.5 3.95 0 5.46-.75.75-1.74 1.13-2.73 1.13s-1.98-.38-2.73-1.13c-1.5-1.5-1.5-3.95 0-5.46m27.93.29v10.55h-1.06V2.17zm8.99 1.53v9.02h-1.06V2.02h.53L59 11.2V2.17h1.05v10.7h-.53L47.8 3.7Zm21.23 0v9.02h-1.06V2.02h.53l11.72 9.18V2.17h1.05v10.7h-.53L69.03 3.7Zm34.46 1.27v4.95c0 2.11-.69 2.8-2.81 2.8h-8.81c-2.11 0-2.81-.69-2.81-2.8V4.97c0-2.11.7-2.8 2.81-2.8h8.81c2.11 0 2.81.69 2.81 2.8m-11.48 6.77h8.53c1.59 0 1.89-.3 1.89-1.89V5.06c0-1.59-.3-1.89-1.89-1.89h-8.53c-1.6 0-1.9.3-1.9 1.89v4.79c0 1.59.3 1.89 1.9 1.89m25.68-7.62-6.38 8.6h-2.25v-.29l7.57-10.26h2.16l7.58 10.26v.29h-2.27l-6.4-8.6Zm26.67-.04h-9.52c-1.02 0-1.21.18-1.21 1.19s.18 1.18 1.21 1.18h7.27c1.94 0 2.86.91 2.86 2.86v.54c0 1.95-.91 2.86-2.86 2.86h-10.66V10.8h10.21c1.02 0 1.2-.18 1.2-1.2v-.04c0-1.03-.17-1.2-1.2-1.2h-7.27c-1.95 0-2.86-.91-2.86-2.87v-.47c0-1.95.91-2.87 2.86-2.87h9.97v1.91Zm21.21 0h-10.56c-1.02 0-1.2.18-1.2 1.2v4.33c0 1.02.18 1.2 1.2 1.2h10.56v1.91h-11.01c-1.95 0-2.87-.91-2.87-2.86V5.04c0-1.95.91-2.87 2.87-2.87h11.01zm6.67-1.91h12.64v1.91h-12.64zm0 8.64h12.64v1.91h-12.64zm0-4.32h12.64V8.4h-12.64zm21.96-1.39v7.62h-2.11V2.02h1.05l11.07 7.71V2.17h2.11v10.7h-1.06zm32.56-.07v4.82c0 1.95-.91 2.86-2.86 2.86h-10.9V10.8h10.45c1.02 0 1.21-.18 1.21-1.2V5.27c0-1.02-.18-1.2-1.21-1.2h-10.45V2.16h10.9c1.95 0 2.86.91 2.86 2.87M37.76 18.54h.75v5.52h-.75zm2.27 0h.8l4.31 4.52v-4.52h.75v5.52h-.75l-4.36-4.58v4.58h-.75zm7.36 0h.8l4.31 4.52v-4.52h.75v5.52h-.75l-4.36-4.58v4.58h-.75zm7.07 2.76c0-1.7 1.37-2.85 3.42-2.85s3.41 1.15 3.41 2.85-1.37 2.85-3.41 2.85-3.42-1.15-3.42-2.85m3.42 2.18c1.59 0 2.62-.87 2.62-2.18s-1.04-2.18-2.62-2.18-2.63.87-2.63 2.18 1.04 2.18 2.63 2.18m3.71-4.94h.85l2.39 4.81 2.38-4.81h.86l-2.79 5.52h-.91l-2.79-5.52Zm8.82 0h.91l2.79 5.52h-.85l-.6-1.22h-3.57l-.6 1.22h-.85l2.79-5.52Zm1.91 3.63-1.46-2.95-1.46 2.95h2.91Zm3.74-2.96h-2.27v-.68h5.29v.68H76.8v4.84h-.75v-4.84Zm4.11-.67h5.01v.67h-4.25v1.7h4.11v.67h-4.11v1.81h4.25v.67h-5.01zm10.59.67h-2.27v-.68h5.29v.68H91.5v4.84h-.75v-4.84Zm3.52 2.09c0-1.7 1.37-2.85 3.42-2.85s3.41 1.15 3.41 2.85-1.37 2.85-3.41 2.85-3.42-1.15-3.42-2.85m3.41 2.18c1.59 0 2.62-.87 2.62-2.18s-1.04-2.18-2.62-2.18-2.63.87-2.63 2.18 1.04 2.18 2.63 2.18m4.61-4.94h2.57c2.03 0 3.44.86 3.44 2.75s-1.42 2.76-3.43 2.76h-2.58v-5.52Zm2.58 4.83c1.7 0 2.66-.67 2.66-2.08s-.96-2.09-2.66-2.09h-1.83v4.17h1.82Zm6.32-4.83h.91l2.79 5.52h-.85l-.6-1.22h-3.57l-.6 1.22h-.85l2.79-5.52Zm1.91 3.63-1.46-2.95-1.46 2.95h2.91Zm4.01-.42-2.72-3.22h.99l2.11 2.53 2.1-2.53h1l-2.72 3.22v2.3h-.75v-2.3Zm3.77 2.33s-.08.02-.12.02c-.26 0-.43-.2-.43-.46s.21-.5.48-.5c.31 0 .53.24.53.64 0 .55-.3 1.03-.7 1.32l-.32-.26c.26-.17.51-.5.56-.76m6.33-5.54h.91l2.79 5.52h-.85l-.6-1.22h-3.57l-.6 1.22h-.85l2.79-5.52Zm1.91 3.63-1.46-2.95-1.46 2.95h2.91Zm2.09.92.47-.56c.53.51 1.39.95 2.48.95 1.33 0 1.9-.47 1.9-.96 0-.69-.85-.82-2.03-.96-1.35-.16-2.64-.35-2.64-1.55 0-.97 1.08-1.57 2.6-1.57 1.2 0 2.1.36 2.71.97l-.48.54c-.52-.51-1.29-.84-2.28-.84-1.08 0-1.76.33-1.76.84 0 .6.75.71 1.97.88 1.37.18 2.7.38 2.7 1.61 0 .86-.85 1.7-2.73 1.7-1.27 0-2.38-.51-2.92-1.07Zm6.53-1.79c0-1.7 1.39-2.85 3.47-2.85 1.3 0 2.25.46 2.84 1.22l-.61.41c-.5-.64-1.24-.97-2.23-.97-1.62 0-2.68.87-2.68 2.18s1.06 2.18 2.68 2.18c.98 0 1.74-.34 2.19-.93l.65.4c-.6.74-1.55 1.19-2.84 1.19-2.08 0-3.47-1.15-3.47-2.85Zm7.28-2.76h5.01v.67h-4.25v1.7h4.11v.67h-4.11v1.81h4.25v.67h-5.01zm6.26 0h.8l4.31 4.52v-4.52h.75v5.52h-.75l-4.36-4.58v4.58h-.75zm7.36 0h2.57c2.03 0 3.44.86 3.44 2.75s-1.42 2.76-3.43 2.76h-2.58v-5.52Zm2.58 4.83c1.7 0 2.66-.67 2.66-2.08s-.96-2.09-2.66-2.09h-1.83v4.17h1.82Zm8.98-4.16h-2.27v-.68h5.29v.68h-2.28v4.84h-.75v-4.84Zm3.52 2.09c0-1.7 1.37-2.85 3.42-2.85s3.41 1.15 3.41 2.85-1.37 2.85-3.41 2.85-3.42-1.15-3.42-2.85m3.41 2.18c1.59 0 2.62-.87 2.62-2.18s-1.04-2.18-2.62-2.18-2.63.87-2.63 2.18 1.04 2.18 2.63 2.18m4.61-4.94h1.08l2.24 4.38 2.24-4.38h1.08v5.52h-.75V19.4l-2.38 4.66h-.35l-2.39-4.66v4.66h-.75v-5.52Zm7.84 2.76c0-1.7 1.37-2.85 3.42-2.85s3.41 1.15 3.41 2.85-1.37 2.85-3.41 2.85-3.42-1.15-3.42-2.85m3.42 2.18c1.59 0 2.62-.87 2.62-2.18s-1.04-2.18-2.62-2.18-2.63.87-2.63 2.18 1.04 2.18 2.63 2.18m4.61-4.94h3.55c1.14 0 1.96.56 1.96 1.68 0 1.04-.68 1.53-1.7 1.66l1.82 2.18h-.97l-1.74-2.15h-2.17v2.15h-.75zm3.52 2.69c.79 0 1.21-.37 1.21-1.02s-.42-1.01-1.21-1.01h-2.77v2.03zm3.19-2.69h3.55c1.14 0 1.96.56 1.96 1.68 0 1.04-.68 1.53-1.7 1.66l1.82 2.18h-.97l-1.74-2.15h-2.17v2.15h-.75zm3.53 2.69c.79 0 1.21-.37 1.21-1.02s-.42-1.01-1.21-1.01h-2.77v2.03zm2.89.07c0-1.7 1.37-2.85 3.42-2.85s3.41 1.15 3.41 2.85-1.37 2.85-3.41 2.85-3.42-1.15-3.42-2.85m3.42 2.18c1.59 0 2.62-.87 2.62-2.18s-1.04-2.18-2.62-2.18-2.63.87-2.63 2.18 1.04 2.18 2.63 2.18m8.16-3.9-1.61 4.48h-.83l-2.01-5.52h.82l1.61 4.64 1.66-4.64h.69l1.66 4.65 1.6-4.65h.83l-2.01 5.52h-.83l-1.6-4.48Z"/></svg>