<svg xmlns="http://www.w3.org/2000/svg" data-name="레이어 2" viewBox="0 0 226.77 162.35"><path d="m151.39 99.49.03.03h-.38c.13 0 .22 0 .35-.03"/><path d="M61.45 109.09c3.68 3.68 8.58 5.71 13.78 5.71s10.1-2.03 13.95-5.87l24.22-24.22 24.38 24.38c3.68 3.68 8.58 5.71 13.78 5.71s10.1-2.03 13.79-5.71c7.6-7.6 7.6-19.97-.12-27.68l-12.7-12.71c-.94-.94-1.96-1.76-3.04-2.48-.23-.15-.49-.24-.72-.38-.87-.52-1.75-1.03-2.68-1.41-.18-.07-.37-.1-.56-.17-1-.37-2.02-.7-3.07-.91-.15-.03-.3-.02-.45-.04-1.07-.18-2.16-.32-3.27-.32h-.01c-2.42 0-4.75.48-6.94 1.31-.14.05-.28.07-.41.12-.96.39-1.87.91-2.76 1.45-.21.13-.43.21-.64.34-1.08.72-2.1 1.54-3.03 2.47l-11.54 11.55-11.54-11.55c-3.8-3.8-8.79-5.7-13.78-5.7s-9.99 1.91-13.8 5.71L61.63 81.36l-.16.16c-3.68 3.69-5.71 8.58-5.71 13.79s2.03 10.1 5.71 13.78Zm65.74-38.17c6.36-6.37 16.73-6.36 23.1.01l12.67 12.67.16.16c6.36 6.36 6.36 16.72 0 23.09-3.09 3.09-7.18 4.79-11.54 4.79s-8.46-1.7-11.7-4.95l-24.23-24.22 11.55-11.55ZM63.78 83.66l12.73-12.73c6.37-6.38 16.75-6.38 23.1-.01l11.54 11.55-24.38 24.38c-3.09 3.09-7.18 4.79-11.54 4.79s-8.46-1.7-11.54-4.79c-3.09-3.08-4.79-7.18-4.79-11.54s1.7-8.46 4.88-11.64Zm63.41-50.39c7.6-7.6 7.6-19.97 0-27.57-3.8-3.8-8.79-5.7-13.79-5.7s-9.98 1.9-13.79 5.7c-7.6 7.6-7.6 19.97 0 27.57 7.61 7.6 19.98 7.59 27.57 0ZM101.85 7.94c6.36-6.38 16.73-6.36 23.09 0 6.37 6.36 6.37 16.72 0 23.09-3.18 3.18-7.36 4.77-11.54 4.77s-8.36-1.59-11.55-4.77c-6.36-6.37-6.37-16.73 0-23.09M1.27 134.83v12.66H0v-12.66zm10.78 1.84v10.82h-1.27v-12.84h.63l14.06 11.02v-10.84h1.26v12.84h-.63l-14.06-11.01Zm25.48 0v10.82h-1.27v-12.84h.63l14.06 11.02v-10.84h1.26v12.84h-.63l-14.06-11.01Zm41.34 1.53v5.94c0 2.53-.83 3.36-3.37 3.36H64.93c-2.53 0-3.37-.83-3.37-3.36v-5.94c0-2.53.84-3.36 3.37-3.36H75.5c2.53 0 3.37.83 3.37 3.36m-13.77 8.11h10.23c1.91 0 2.27-.36 2.27-2.27v-5.75c0-1.91-.36-2.27-2.27-2.27H65.1c-1.92 0-2.28.36-2.28 2.27v5.75c0 1.91.36 2.27 2.28 2.27m30.81-9.13-7.65 10.32h-2.7v-.35l9.08-12.31h2.59l9.09 12.31v.35h-2.72l-7.68-10.32Zm31.99-.06h-11.42c-1.23 0-1.45.22-1.45 1.43s.22 1.42 1.45 1.42h8.72c2.33 0 3.43 1.09 3.43 3.44v.65c0 2.34-1.09 3.44-3.43 3.44h-12.79v-2.29h12.25c1.23 0 1.44-.22 1.44-1.45v-.05c0-1.24-.21-1.45-1.44-1.45h-8.72c-2.34 0-3.44-1.09-3.44-3.44v-.56c0-2.34 1.09-3.44 3.44-3.44h11.97v2.29Zm25.45 0h-12.67c-1.23 0-1.45.22-1.45 1.45v5.19c0 1.23.22 1.45 1.45 1.45h12.67v2.29h-13.21c-2.34 0-3.44-1.09-3.44-3.44v-5.79c0-2.34 1.09-3.44 3.44-3.44h13.21zm8-2.29h15.16v2.29h-15.16zm0 10.38h15.16v2.29h-15.16zm0-5.19h15.16v2.29h-15.16zm26.36-1.67v9.14h-2.53v-12.84h1.26l13.28 9.25v-9.07h2.53v12.84h-1.27l-13.28-9.32Zm39.06-.08v5.79c0 2.34-1.09 3.44-3.44 3.44h-13.08v-2.29h12.54c1.23 0 1.45-.22 1.45-1.45v-5.19c0-1.23-.22-1.45-1.45-1.45h-12.54v-2.29h13.08c2.34 0 3.44 1.09 3.44 3.44M0 154.47h.9v6.62H0zm2.72 0h.96l5.17 5.43v-5.43h.9v6.62h-.9l-5.23-5.5v5.5h-.9zm8.84 0h.96l5.17 5.43v-5.43h.9v6.62h-.9l-5.23-5.5v5.5h-.9zm8.48 3.32c0-2.04 1.65-3.42 4.1-3.42s4.09 1.38 4.09 3.42-1.65 3.42-4.09 3.42-4.1-1.38-4.1-3.42m4.1 2.62c1.91 0 3.15-1.04 3.15-2.62s-1.24-2.62-3.15-2.62-3.16 1.04-3.16 2.62 1.25 2.62 3.16 2.62m4.45-5.94h1.02l2.87 5.78 2.86-5.78h1.03l-3.34 6.62h-1.09l-3.34-6.62Zm10.58 0h1.09l3.34 6.62h-1.02l-.72-1.46h-4.29l-.72 1.46h-1.02zm2.29 4.36-1.75-3.54-1.75 3.54h3.49Zm4.49-3.54h-2.72v-.81h6.35v.81h-2.73v5.81h-.9zm4.93-.82h6.01v.8h-5.1v2.03h4.93v.8h-4.93v2.17h5.1v.8h-6.01v-6.62Zm12.71.82h-2.72v-.81h6.35v.81h-2.73v5.81h-.9zm4.21 2.5c0-2.04 1.65-3.42 4.1-3.42s4.09 1.38 4.09 3.42-1.65 3.42-4.09 3.42-4.1-1.38-4.1-3.42m4.1 2.62c1.91 0 3.15-1.04 3.15-2.62s-1.24-2.62-3.15-2.62-3.16 1.04-3.16 2.62 1.25 2.62 3.16 2.62m5.54-5.94h3.09c2.44 0 4.13 1.03 4.13 3.31s-1.7 3.31-4.12 3.31h-3.1zm3.08 5.81c2.04 0 3.2-.8 3.2-2.5s-1.15-2.5-3.19-2.5h-2.19v5h2.19Zm7.59-5.81h1.09l3.34 6.62h-1.02l-.72-1.46h-4.29l-.72 1.46h-1.02zm2.29 4.36-1.75-3.54-1.75 3.54h3.49Zm4.82-.5-3.27-3.86h1.18l2.53 3.04 2.52-3.04h1.2l-3.26 3.86v2.76h-.9zm4.52 2.79s-.09.02-.14.02c-.32 0-.52-.24-.52-.55s.26-.59.58-.59c.38 0 .64.29.64.76 0 .65-.36 1.24-.84 1.59l-.39-.32c.32-.21.62-.6.67-.91m7.59-6.65h1.09l3.34 6.62h-1.02l-.72-1.46h-4.29l-.72 1.46h-1.02zm2.29 4.36-1.75-3.54-1.75 3.54h3.49Zm2.51 1.1.57-.67c.64.62 1.67 1.14 2.98 1.14 1.6 0 2.28-.57 2.28-1.15 0-.83-1.02-.98-2.43-1.15-1.62-.19-3.17-.42-3.17-1.86 0-1.16 1.3-1.89 3.12-1.89 1.44 0 2.52.43 3.26 1.16l-.58.65c-.63-.62-1.55-1-2.73-1-1.3 0-2.11.4-2.11 1.01 0 .72.9.85 2.36 1.05 1.64.22 3.24.46 3.24 1.94 0 1.03-1.02 2.04-3.28 2.04-1.53 0-2.86-.62-3.5-1.28Zm7.83-2.14c0-2.04 1.67-3.42 4.16-3.42 1.56 0 2.7.55 3.41 1.47l-.73.5c-.59-.76-1.49-1.16-2.68-1.16-1.95 0-3.22 1.04-3.22 2.62s1.27 2.62 3.22 2.62c1.17 0 2.08-.41 2.63-1.11l.78.48c-.72.88-1.86 1.43-3.41 1.43-2.49 0-4.16-1.38-4.16-3.42Zm8.74-3.32h6.01v.8h-5.1v2.03h4.93v.8h-4.93v2.17h5.1v.8h-6.01v-6.62Zm7.5 0h.96l5.17 5.43v-5.43h.9v6.62h-.9l-5.23-5.5v5.5h-.9zm8.84 0h3.09c2.44 0 4.13 1.03 4.13 3.31s-1.7 3.31-4.12 3.31h-3.1zm3.09 5.81c2.04 0 3.2-.8 3.2-2.5s-1.15-2.5-3.19-2.5h-2.19v5h2.19Zm10.78-4.99h-2.72v-.81h6.35v.81h-2.73v5.81h-.9zm4.22 2.5c0-2.04 1.65-3.42 4.1-3.42s4.09 1.38 4.09 3.42-1.65 3.42-4.09 3.42-4.1-1.38-4.1-3.42m4.1 2.62c1.91 0 3.15-1.04 3.15-2.62s-1.24-2.62-3.15-2.62-3.16 1.04-3.16 2.62 1.25 2.62 3.16 2.62m5.53-5.94h1.29l2.69 5.25 2.69-5.25h1.29v6.62h-.91v-5.59l-2.86 5.59h-.43l-2.87-5.59v5.59h-.9v-6.62Zm9.4 3.32c0-2.04 1.65-3.42 4.1-3.42s4.09 1.38 4.09 3.42-1.65 3.42-4.09 3.42-4.1-1.38-4.1-3.42m4.1 2.62c1.91 0 3.15-1.04 3.15-2.62s-1.24-2.62-3.15-2.62-3.16 1.04-3.16 2.62 1.25 2.62 3.16 2.62m5.53-5.94h4.26c1.37 0 2.35.67 2.35 2.01 0 1.25-.81 1.84-2.04 1.99l2.18 2.62h-1.16l-2.08-2.58h-2.6v2.58h-.9v-6.62Zm4.23 3.24c.94 0 1.45-.45 1.45-1.22s-.51-1.21-1.45-1.21h-3.33v2.43zm3.83-3.24h4.26c1.37 0 2.35.67 2.35 2.01 0 1.25-.81 1.84-2.04 1.99l2.18 2.62h-1.16l-2.08-2.58h-2.6v2.58h-.9v-6.62Zm4.23 3.24c.94 0 1.45-.45 1.45-1.22s-.51-1.21-1.45-1.21h-3.33v2.43zm3.47.08c0-2.04 1.65-3.42 4.1-3.42s4.09 1.38 4.09 3.42-1.65 3.42-4.09 3.42-4.1-1.38-4.1-3.42m4.1 2.62c1.91 0 3.15-1.04 3.15-2.62s-1.24-2.62-3.15-2.62-3.16 1.04-3.16 2.62 1.25 2.62 3.16 2.62m9.79-4.69-1.93 5.37h-.99l-2.41-6.62h.98l1.94 5.57 1.99-5.57h.83l2 5.58 1.92-5.58h.99l-2.41 6.62h-.99z"/></svg>